<svg width="270" height="43" viewBox="0 0 270 43" fill="none" xmlns="http://www.w3.org/2000/svg">
    <mask id="path-1-outside-1_63_151" maskUnits="userSpaceOnUse" x="-1" y="-1" width="272" height="45" fill="black">
        <rect fill="white" x="-1" y="-1" width="272" height="45"/>
        <path d="M9.624 37.264H11.352C12.2907 37.264 12.9307 37.0933 13.272 36.752C13.656 36.368 13.848 35.7707 13.848 34.96V5.392H7.96C7.10667 5.392 6.488 5.584 6.104 5.968C5.72 6.30933 5.528 6.88533 5.528 7.696V9.744H0.472V0.655998H33.944V9.744H28.888V7.696C28.888 6.84266 28.696 6.24533 28.312 5.904C27.9707 5.56267 27.352 5.392 26.456 5.392H20.632V34.96C20.632 35.7707 20.8027 36.368 21.144 36.752C21.528 37.0933 22.1893 37.264 23.128 37.264H24.856V42H9.624V37.264ZM45.9185 42.96C40.7132 42.96 36.7878 41.5307 34.1425 38.672C31.4972 35.8133 30.1745 31.824 30.1745 26.704C30.1745 21.5413 31.4758 17.5307 34.0785 14.672C36.7238 11.7707 40.6705 10.32 45.9185 10.32C51.1665 10.32 55.0918 11.7707 57.6945 14.672C60.3398 17.5307 61.6625 21.5413 61.6625 26.704C61.6625 31.824 60.3398 35.8133 57.6945 38.672C55.0492 41.5307 51.1238 42.96 45.9185 42.96ZM45.9185 38.16C48.9905 38.16 51.2732 37.2213 52.7665 35.344C54.2598 33.4667 55.0065 30.5867 55.0065 26.704C55.0065 22.7787 54.2598 19.8773 52.7665 18C51.2732 16.08 48.9905 15.12 45.9185 15.12C42.8465 15.12 40.5638 16.08 39.0705 18C37.6198 19.8773 36.8945 22.7787 36.8945 26.704C36.8945 30.5867 37.6198 33.4667 39.0705 35.344C40.5638 37.2213 42.8465 38.16 45.9185 38.16ZM77.756 42.96C74.2573 42.96 71.612 42.0427 69.82 40.208C68.028 38.3733 67.132 35.7493 67.132 32.336V18.384C67.132 17.5733 66.94 16.976 66.556 16.592C66.2147 16.208 65.6387 16.016 64.828 16.016H62.972V11.28H73.98V32.272C73.98 36.4107 75.9853 38.48 79.996 38.48C82.172 38.48 83.9213 37.84 85.244 36.56C86.5667 35.28 87.228 33.4453 87.228 31.056V18.384C87.228 17.5733 87.0573 16.976 86.716 16.592C86.4173 16.208 85.884 16.016 85.116 16.016H83.324V11.28H94.012V34.896C94.012 35.7067 94.204 36.304 94.588 36.688C94.972 37.0293 95.5693 37.2 96.38 37.2H97.66V42H89.532L89.148 37.84C87.7827 39.632 86.1827 40.9333 84.348 41.744C82.556 42.5547 80.3587 42.96 77.756 42.96ZM101.237 37.264H102.837C103.69 37.264 104.288 37.0933 104.629 36.752C105.013 36.368 105.205 35.7493 105.205 34.896V18.384C105.205 17.5733 105.034 16.976 104.693 16.592C104.352 16.208 103.776 16.016 102.965 16.016H101.621V11.28H110.453L111.349 14.8C112.202 13.4773 113.29 12.56 114.613 12.048C115.978 11.536 117.578 11.28 119.413 11.28H122.357V16.016H118.773C116.341 16.016 114.613 16.5707 113.589 17.68C112.565 18.7467 112.053 20.4107 112.053 22.672V34.896C112.053 35.7493 112.224 36.368 112.565 36.752C112.906 37.0933 113.482 37.264 114.293 37.264H115.893V42H101.237V37.264ZM129.317 0.528H136.549V6.416H129.317V0.528ZM125.285 37.264H127.141C127.994 37.264 128.591 37.072 128.933 36.688C129.317 36.304 129.509 35.6853 129.509 34.832V18.384C129.509 17.5733 129.317 16.9973 128.933 16.656C128.591 16.272 127.994 16.08 127.141 16.08H125.285V11.28H136.357V34.896C136.357 35.7067 136.549 36.304 136.933 36.688C137.317 37.072 137.914 37.264 138.725 37.264H140.581V42H125.285V37.264ZM157.039 42.96C151.876 42.96 147.588 41.7227 144.174 39.248V34.256H150.447V36.816C152.196 37.84 154.329 38.352 156.847 38.352C158.767 38.352 160.196 38.0533 161.135 37.456C162.116 36.8587 162.607 35.8773 162.607 34.512C162.607 33.616 162.351 32.8907 161.839 32.336C161.369 31.7387 160.708 31.248 159.855 30.864C159.001 30.4373 157.316 29.712 154.799 28.688C152.281 27.664 150.34 26.7893 148.975 26.064C147.652 25.296 146.564 24.336 145.711 23.184C144.9 22.032 144.495 20.5813 144.495 18.832C144.495 16.016 145.583 13.904 147.759 12.496C149.935 11.0453 152.9 10.32 156.655 10.32C159.044 10.32 161.284 10.64 163.375 11.28C165.465 11.8773 167.279 12.752 168.815 13.904V18.704H162.671V16.336C161.135 15.3973 159.3 14.928 157.167 14.928C155.247 14.928 153.796 15.2267 152.815 15.824C151.876 16.4213 151.407 17.424 151.407 18.832C151.407 20.112 151.919 21.1147 152.943 21.84C153.967 22.5227 155.545 23.248 157.679 24.016C158.276 24.1867 158.937 24.4213 159.663 24.72C161.881 25.5733 163.652 26.3627 164.975 27.088C166.297 27.8133 167.385 28.7733 168.239 29.968C169.092 31.1627 169.519 32.6773 169.519 34.512C169.519 37.2427 168.473 39.3333 166.383 40.784C164.335 42.2347 161.22 42.96 157.039 42.96ZM187.84 42.96C184.298 42.96 181.632 42.0853 179.84 40.336C178.048 38.5867 177.152 36.0267 177.152 32.656V15.888H172.16V11.28H177.152V4.368L183.936 2.192V11.28H193.152V15.888H183.936V33.104C183.936 34.9813 184.277 36.3253 184.96 37.136C185.685 37.9467 186.773 38.352 188.224 38.352C190.101 38.352 191.53 37.9467 192.512 37.136V34.384H198.336V39.248C196.928 40.4427 195.392 41.36 193.728 42C192.064 42.64 190.101 42.96 187.84 42.96ZM210.404 42.96C206.991 42.96 204.388 42.2133 202.596 40.72C200.847 39.2267 199.972 37.1147 199.972 34.384C199.972 31.312 200.932 29.072 202.852 27.664C204.815 26.2133 207.631 25.36 211.3 25.104L220.26 24.528V20.624C220.26 18.6187 219.833 17.168 218.98 16.272C218.127 15.376 216.676 14.928 214.628 14.928C213.22 14.928 212.047 15.056 211.108 15.312C210.212 15.5253 209.38 15.888 208.612 16.4V18.704H202.66V13.648C206.244 11.4293 210.276 10.32 214.756 10.32C222.948 10.32 227.044 13.9467 227.044 21.2V35.216C227.044 36.0693 227.193 36.688 227.492 37.072C227.833 37.456 228.367 37.648 229.092 37.648H230.5V42H223.14L222.308 37.968C220.943 39.7173 219.343 40.9973 217.508 41.808C215.716 42.576 213.348 42.96 210.404 42.96ZM211.94 38.352C214.5 38.352 216.527 37.7973 218.02 36.688C219.513 35.5787 220.26 33.8933 220.26 31.632V28.56L211.812 29.2C209.721 29.328 208.271 29.776 207.46 30.544C206.649 31.2693 206.244 32.4427 206.244 34.064C206.244 35.472 206.692 36.5387 207.588 37.264C208.484 37.9893 209.935 38.352 211.94 38.352ZM234.112 37.264H235.712C236.565 37.264 237.163 37.0933 237.504 36.752C237.888 36.368 238.08 35.7493 238.08 34.896V18.448C238.08 17.5947 237.909 16.9973 237.568 16.656C237.227 16.272 236.629 16.08 235.776 16.08H234.432V11.28H242.624L243.008 15.568C244.459 13.7333 246.101 12.4107 247.936 11.6C249.813 10.7467 252.075 10.32 254.72 10.32C261.547 10.32 264.96 13.8613 264.96 20.944V34.896C264.96 35.7493 265.131 36.368 265.472 36.752C265.856 37.0933 266.475 37.264 267.328 37.264H269.12V42H258.112V21.008C258.112 18.8747 257.664 17.3387 256.768 16.4C255.872 15.4187 254.421 14.928 252.416 14.928C250.24 14.928 248.448 15.5467 247.04 16.784C245.632 18.0213 244.928 19.7493 244.928 21.968V34.896C244.928 35.7493 245.077 36.368 245.376 36.752C245.717 37.0933 246.293 37.264 247.104 37.264H248.768V42H234.112V37.264Z"/>
    </mask>
    <path d="M9.624 37.264H11.352C12.2907 37.264 12.9307 37.0933 13.272 36.752C13.656 36.368 13.848 35.7707 13.848 34.96V5.392H7.96C7.10667 5.392 6.488 5.584 6.104 5.968C5.72 6.30933 5.528 6.88533 5.528 7.696V9.744H0.472V0.655998H33.944V9.744H28.888V7.696C28.888 6.84266 28.696 6.24533 28.312 5.904C27.9707 5.56267 27.352 5.392 26.456 5.392H20.632V34.96C20.632 35.7707 20.8027 36.368 21.144 36.752C21.528 37.0933 22.1893 37.264 23.128 37.264H24.856V42H9.624V37.264ZM45.9185 42.96C40.7132 42.96 36.7878 41.5307 34.1425 38.672C31.4972 35.8133 30.1745 31.824 30.1745 26.704C30.1745 21.5413 31.4758 17.5307 34.0785 14.672C36.7238 11.7707 40.6705 10.32 45.9185 10.32C51.1665 10.32 55.0918 11.7707 57.6945 14.672C60.3398 17.5307 61.6625 21.5413 61.6625 26.704C61.6625 31.824 60.3398 35.8133 57.6945 38.672C55.0492 41.5307 51.1238 42.96 45.9185 42.96ZM45.9185 38.16C48.9905 38.16 51.2732 37.2213 52.7665 35.344C54.2598 33.4667 55.0065 30.5867 55.0065 26.704C55.0065 22.7787 54.2598 19.8773 52.7665 18C51.2732 16.08 48.9905 15.12 45.9185 15.12C42.8465 15.12 40.5638 16.08 39.0705 18C37.6198 19.8773 36.8945 22.7787 36.8945 26.704C36.8945 30.5867 37.6198 33.4667 39.0705 35.344C40.5638 37.2213 42.8465 38.16 45.9185 38.16ZM77.756 42.96C74.2573 42.96 71.612 42.0427 69.82 40.208C68.028 38.3733 67.132 35.7493 67.132 32.336V18.384C67.132 17.5733 66.94 16.976 66.556 16.592C66.2147 16.208 65.6387 16.016 64.828 16.016H62.972V11.28H73.98V32.272C73.98 36.4107 75.9853 38.48 79.996 38.48C82.172 38.48 83.9213 37.84 85.244 36.56C86.5667 35.28 87.228 33.4453 87.228 31.056V18.384C87.228 17.5733 87.0573 16.976 86.716 16.592C86.4173 16.208 85.884 16.016 85.116 16.016H83.324V11.28H94.012V34.896C94.012 35.7067 94.204 36.304 94.588 36.688C94.972 37.0293 95.5693 37.2 96.38 37.2H97.66V42H89.532L89.148 37.84C87.7827 39.632 86.1827 40.9333 84.348 41.744C82.556 42.5547 80.3587 42.96 77.756 42.96ZM101.237 37.264H102.837C103.69 37.264 104.288 37.0933 104.629 36.752C105.013 36.368 105.205 35.7493 105.205 34.896V18.384C105.205 17.5733 105.034 16.976 104.693 16.592C104.352 16.208 103.776 16.016 102.965 16.016H101.621V11.28H110.453L111.349 14.8C112.202 13.4773 113.29 12.56 114.613 12.048C115.978 11.536 117.578 11.28 119.413 11.28H122.357V16.016H118.773C116.341 16.016 114.613 16.5707 113.589 17.68C112.565 18.7467 112.053 20.4107 112.053 22.672V34.896C112.053 35.7493 112.224 36.368 112.565 36.752C112.906 37.0933 113.482 37.264 114.293 37.264H115.893V42H101.237V37.264ZM129.317 0.528H136.549V6.416H129.317V0.528ZM125.285 37.264H127.141C127.994 37.264 128.591 37.072 128.933 36.688C129.317 36.304 129.509 35.6853 129.509 34.832V18.384C129.509 17.5733 129.317 16.9973 128.933 16.656C128.591 16.272 127.994 16.08 127.141 16.08H125.285V11.28H136.357V34.896C136.357 35.7067 136.549 36.304 136.933 36.688C137.317 37.072 137.914 37.264 138.725 37.264H140.581V42H125.285V37.264ZM157.039 42.96C151.876 42.96 147.588 41.7227 144.174 39.248V34.256H150.447V36.816C152.196 37.84 154.329 38.352 156.847 38.352C158.767 38.352 160.196 38.0533 161.135 37.456C162.116 36.8587 162.607 35.8773 162.607 34.512C162.607 33.616 162.351 32.8907 161.839 32.336C161.369 31.7387 160.708 31.248 159.855 30.864C159.001 30.4373 157.316 29.712 154.799 28.688C152.281 27.664 150.34 26.7893 148.975 26.064C147.652 25.296 146.564 24.336 145.711 23.184C144.9 22.032 144.495 20.5813 144.495 18.832C144.495 16.016 145.583 13.904 147.759 12.496C149.935 11.0453 152.9 10.32 156.655 10.32C159.044 10.32 161.284 10.64 163.375 11.28C165.465 11.8773 167.279 12.752 168.815 13.904V18.704H162.671V16.336C161.135 15.3973 159.3 14.928 157.167 14.928C155.247 14.928 153.796 15.2267 152.815 15.824C151.876 16.4213 151.407 17.424 151.407 18.832C151.407 20.112 151.919 21.1147 152.943 21.84C153.967 22.5227 155.545 23.248 157.679 24.016C158.276 24.1867 158.937 24.4213 159.663 24.72C161.881 25.5733 163.652 26.3627 164.975 27.088C166.297 27.8133 167.385 28.7733 168.239 29.968C169.092 31.1627 169.519 32.6773 169.519 34.512C169.519 37.2427 168.473 39.3333 166.383 40.784C164.335 42.2347 161.22 42.96 157.039 42.96ZM187.84 42.96C184.298 42.96 181.632 42.0853 179.84 40.336C178.048 38.5867 177.152 36.0267 177.152 32.656V15.888H172.16V11.28H177.152V4.368L183.936 2.192V11.28H193.152V15.888H183.936V33.104C183.936 34.9813 184.277 36.3253 184.96 37.136C185.685 37.9467 186.773 38.352 188.224 38.352C190.101 38.352 191.53 37.9467 192.512 37.136V34.384H198.336V39.248C196.928 40.4427 195.392 41.36 193.728 42C192.064 42.64 190.101 42.96 187.84 42.96ZM210.404 42.96C206.991 42.96 204.388 42.2133 202.596 40.72C200.847 39.2267 199.972 37.1147 199.972 34.384C199.972 31.312 200.932 29.072 202.852 27.664C204.815 26.2133 207.631 25.36 211.3 25.104L220.26 24.528V20.624C220.26 18.6187 219.833 17.168 218.98 16.272C218.127 15.376 216.676 14.928 214.628 14.928C213.22 14.928 212.047 15.056 211.108 15.312C210.212 15.5253 209.38 15.888 208.612 16.4V18.704H202.66V13.648C206.244 11.4293 210.276 10.32 214.756 10.32C222.948 10.32 227.044 13.9467 227.044 21.2V35.216C227.044 36.0693 227.193 36.688 227.492 37.072C227.833 37.456 228.367 37.648 229.092 37.648H230.5V42H223.14L222.308 37.968C220.943 39.7173 219.343 40.9973 217.508 41.808C215.716 42.576 213.348 42.96 210.404 42.96ZM211.94 38.352C214.5 38.352 216.527 37.7973 218.02 36.688C219.513 35.5787 220.26 33.8933 220.26 31.632V28.56L211.812 29.2C209.721 29.328 208.271 29.776 207.46 30.544C206.649 31.2693 206.244 32.4427 206.244 34.064C206.244 35.472 206.692 36.5387 207.588 37.264C208.484 37.9893 209.935 38.352 211.94 38.352ZM234.112 37.264H235.712C236.565 37.264 237.163 37.0933 237.504 36.752C237.888 36.368 238.08 35.7493 238.08 34.896V18.448C238.08 17.5947 237.909 16.9973 237.568 16.656C237.227 16.272 236.629 16.08 235.776 16.08H234.432V11.28H242.624L243.008 15.568C244.459 13.7333 246.101 12.4107 247.936 11.6C249.813 10.7467 252.075 10.32 254.72 10.32C261.547 10.32 264.96 13.8613 264.96 20.944V34.896C264.96 35.7493 265.131 36.368 265.472 36.752C265.856 37.0933 266.475 37.264 267.328 37.264H269.12V42H258.112V21.008C258.112 18.8747 257.664 17.3387 256.768 16.4C255.872 15.4187 254.421 14.928 252.416 14.928C250.24 14.928 248.448 15.5467 247.04 16.784C245.632 18.0213 244.928 19.7493 244.928 21.968V34.896C244.928 35.7493 245.077 36.368 245.376 36.752C245.717 37.0933 246.293 37.264 247.104 37.264H248.768V42H234.112V37.264Z" fill="#2963F8"/>
    <path d="M9.624 37.264V36.264H8.624V37.264H9.624ZM13.272 36.752L12.5649 36.0449L13.272 36.752ZM13.848 5.392H14.848V4.392H13.848V5.392ZM6.104 5.968L6.76836 6.71541L6.79033 6.69588L6.81111 6.67511L6.104 5.968ZM5.528 9.744V10.744H6.528V9.744H5.528ZM0.472 9.744H-0.528V10.744H0.472V9.744ZM0.472 0.655998V-0.344002H-0.528V0.655998H0.472ZM33.944 0.655998H34.944V-0.344002H33.944V0.655998ZM33.944 9.744V10.744H34.944V9.744H33.944ZM28.888 9.744H27.888V10.744H28.888V9.744ZM28.312 5.904L27.6049 6.61111L27.6257 6.63189L27.6476 6.65141L28.312 5.904ZM20.632 5.392V4.392H19.632V5.392H20.632ZM21.144 36.752L20.3966 37.4164L20.4357 37.4603L20.4796 37.4994L21.144 36.752ZM24.856 37.264H25.856V36.264H24.856V37.264ZM24.856 42V43H25.856V42H24.856ZM9.624 42H8.624V43H9.624V42ZM9.624 38.264H11.352V36.264H9.624V38.264ZM11.352 38.264C12.3354 38.264 13.3373 38.1009 13.9791 37.4591L12.5649 36.0449C12.524 36.0857 12.2459 36.264 11.352 36.264V38.264ZM13.9791 37.4591C14.6257 36.8125 14.848 35.9065 14.848 34.96H12.848C12.848 35.6348 12.6863 35.9235 12.5649 36.0449L13.9791 37.4591ZM14.848 34.96V5.392H12.848V34.96H14.848ZM13.848 4.392H7.96V6.392H13.848V4.392ZM7.96 4.392C6.98838 4.392 6.05159 4.6062 5.39689 5.26089L6.81111 6.67511C6.92441 6.5618 7.22495 6.392 7.96 6.392V4.392ZM5.43964 5.22059C4.74497 5.83807 4.528 6.76245 4.528 7.696H6.528C6.528 7.00821 6.69503 6.78059 6.76836 6.71541L5.43964 5.22059ZM4.528 7.696V9.744H6.528V7.696H4.528ZM5.528 8.744H0.472V10.744H5.528V8.744ZM1.472 9.744V0.655998H-0.528V9.744H1.472ZM0.472 1.656H33.944V-0.344002H0.472V1.656ZM32.944 0.655998V9.744H34.944V0.655998H32.944ZM33.944 8.744H28.888V10.744H33.944V8.744ZM29.888 9.744V7.696H27.888V9.744H29.888ZM29.888 7.696C29.888 6.73911 29.68 5.782 28.9764 5.15659L27.6476 6.65141C27.712 6.70866 27.888 6.94622 27.888 7.696H29.888ZM29.0191 5.19689C28.3833 4.56105 27.4128 4.392 26.456 4.392V6.392C27.2912 6.392 27.5581 6.56428 27.6049 6.61111L29.0191 5.19689ZM26.456 4.392H20.632V6.392H26.456V4.392ZM19.632 5.392V34.96H21.632V5.392H19.632ZM19.632 34.96C19.632 35.8809 19.8211 36.7689 20.3966 37.4164L21.8914 36.0876C21.7843 35.9671 21.632 35.6604 21.632 34.96H19.632ZM20.4796 37.4994C21.1474 38.0929 22.1251 38.264 23.128 38.264V36.264C22.2536 36.264 21.9086 36.0937 21.8084 36.0046L20.4796 37.4994ZM23.128 38.264H24.856V36.264H23.128V38.264ZM23.856 37.264V42H25.856V37.264H23.856ZM24.856 41H9.624V43H24.856V41ZM10.624 42V37.264H8.624V42H10.624ZM34.1425 38.672L34.8765 37.9928L34.1425 38.672ZM34.0785 14.672L33.3395 13.9982L33.3391 13.9988L34.0785 14.672ZM57.6945 14.672L56.9501 15.3398L56.9553 15.3455L56.9605 15.3512L57.6945 14.672ZM57.6945 38.672L56.9605 37.9928L57.6945 38.672ZM52.7665 35.344L51.9839 34.7215L52.7665 35.344ZM52.7665 18L51.9771 18.614L51.9839 18.6225L52.7665 18ZM39.0705 18L38.2811 17.3861L38.2792 17.3885L39.0705 18ZM39.0705 35.344L38.2791 35.9555L38.2879 35.9665L39.0705 35.344ZM45.9185 41.96C40.8938 41.96 37.2749 40.5847 34.8765 37.9928L33.4085 39.3512C36.3008 42.4767 40.5325 43.96 45.9185 43.96V41.96ZM34.8765 37.9928C32.4504 35.371 31.1745 31.6535 31.1745 26.704H29.1745C29.1745 31.9945 30.544 36.2556 33.4085 39.3512L34.8765 37.9928ZM31.1745 26.704C31.1745 21.7053 32.4325 17.9653 34.8179 15.3452L33.3391 13.9988C30.5192 17.096 29.1745 21.3774 29.1745 26.704H31.1745ZM34.8175 15.3458C37.2155 12.7157 40.8526 11.32 45.9185 11.32V9.32C40.4884 9.32 36.2322 10.8256 33.3395 13.9982L34.8175 15.3458ZM45.9185 11.32C50.9855 11.32 54.5965 12.7161 56.9501 15.3398L58.4389 14.0042C55.5872 10.8253 51.3475 9.32 45.9185 9.32V11.32ZM56.9605 15.3512C59.3853 17.9715 60.6625 21.7093 60.6625 26.704H62.6625C62.6625 21.3734 61.2943 17.0898 58.4285 13.9928L56.9605 15.3512ZM60.6625 26.704C60.6625 31.6535 59.3867 35.371 56.9605 37.9928L58.4285 39.3512C61.293 36.2556 62.6625 31.9945 62.6625 26.704H60.6625ZM56.9605 37.9928C54.5621 40.5847 50.9432 41.96 45.9185 41.96V43.96C51.3045 43.96 55.5362 42.4767 58.4285 39.3512L56.9605 37.9928ZM45.9185 39.16C49.2022 39.16 51.8148 38.1468 53.5491 35.9665L51.9839 34.7215C50.7315 36.2959 48.7788 37.16 45.9185 37.16V39.16ZM53.5491 35.9665C55.247 33.8321 56.0065 30.683 56.0065 26.704H54.0065C54.0065 30.4903 53.2727 33.1013 51.9839 34.7215L53.5491 35.9665ZM56.0065 26.704C56.0065 22.6855 55.2481 19.5134 53.5491 17.3775L51.9839 18.6225C53.2715 20.2412 54.0065 22.8719 54.0065 26.704H56.0065ZM53.5559 17.3861C51.8244 15.1599 49.21 14.12 45.9185 14.12V16.12C48.771 16.12 50.722 17.0001 51.9771 18.6139L53.5559 17.3861ZM45.9185 14.12C42.627 14.12 40.0126 15.1599 38.2811 17.3861L39.8599 18.6139C41.115 17.0001 43.066 16.12 45.9185 16.12V14.12ZM38.2792 17.3885C36.6299 19.523 35.8945 22.6901 35.8945 26.704H37.8945C37.8945 22.8673 38.6098 20.2317 39.8618 18.6114L38.2792 17.3885ZM35.8945 26.704C35.8945 30.6783 36.631 33.8225 38.2792 35.9554L39.8618 34.7326C38.6087 33.1109 37.8945 30.495 37.8945 26.704H35.8945ZM38.2879 35.9665C40.0222 38.1468 42.6348 39.16 45.9185 39.16V37.16C43.0582 37.16 41.1055 36.2959 39.8531 34.7215L38.2879 35.9665ZM69.82 40.208L70.5354 39.5093L69.82 40.208ZM66.556 16.592L65.8086 17.2564L65.8281 17.2783L65.8489 17.2991L66.556 16.592ZM62.972 16.016H61.972V17.016H62.972V16.016ZM62.972 11.28V10.28H61.972V11.28H62.972ZM73.98 11.28H74.98V10.28H73.98V11.28ZM85.244 36.56L85.9394 37.2786L85.244 36.56ZM86.716 16.592L85.9267 17.2059L85.9468 17.2318L85.9686 17.2564L86.716 16.592ZM83.324 16.016H82.324V17.016H83.324V16.016ZM83.324 11.28V10.28H82.324V11.28H83.324ZM94.012 11.28H95.012V10.28H94.012V11.28ZM94.588 36.688L93.8809 37.3951L93.9017 37.4159L93.9236 37.4354L94.588 36.688ZM97.66 37.2H98.66V36.2H97.66V37.2ZM97.66 42V43H98.66V42H97.66ZM89.532 42L88.5362 42.0919L88.6201 43H89.532V42ZM89.148 37.84L90.1438 37.7481L89.9079 35.1926L88.3526 37.234L89.148 37.84ZM84.348 41.744L83.9438 40.8293L83.9358 40.8329L84.348 41.744ZM77.756 41.96C74.4258 41.96 72.0788 41.0894 70.5354 39.5093L69.1046 40.9067C71.1452 42.9959 74.0889 43.96 77.756 43.96V41.96ZM70.5354 39.5093C68.9798 37.9167 68.132 35.5772 68.132 32.336H66.132C66.132 35.9215 67.0762 38.83 69.1046 40.9067L70.5354 39.5093ZM68.132 32.336V18.384H66.132V32.336H68.132ZM68.132 18.384C68.132 17.4375 67.9097 16.5315 67.2631 15.8849L65.8489 17.2991C65.9703 17.4205 66.132 17.7091 66.132 18.384H68.132ZM67.3034 15.9276C66.6859 15.233 65.7615 15.016 64.828 15.016V17.016C65.5158 17.016 65.7434 17.183 65.8086 17.2564L67.3034 15.9276ZM64.828 15.016H62.972V17.016H64.828V15.016ZM63.972 16.016V11.28H61.972V16.016H63.972ZM62.972 12.28H73.98V10.28H62.972V12.28ZM72.98 11.28V32.272H74.98V11.28H72.98ZM72.98 32.272C72.98 34.4877 73.5165 36.3346 74.7659 37.6239C76.0209 38.919 77.8284 39.48 79.996 39.48V37.48C78.1529 37.48 76.9524 37.0063 76.2021 36.2321C75.4462 35.452 74.98 34.1949 74.98 32.272H72.98ZM79.996 39.48C82.3809 39.48 84.3968 38.7715 85.9394 37.2786L84.5486 35.8414C83.4459 36.9085 81.9631 37.48 79.996 37.48V39.48ZM85.9394 37.2786C87.5102 35.7585 88.228 33.6316 88.228 31.056H86.228C86.228 33.2591 85.6231 34.8015 84.5486 35.8414L85.9394 37.2786ZM88.228 31.056V18.384H86.228V31.056H88.228ZM88.228 18.384C88.228 17.4631 88.0389 16.5751 87.4634 15.9276L85.9686 17.2564C86.0757 17.3769 86.228 17.6836 86.228 18.384H88.228ZM87.5054 15.9781C86.9289 15.2369 86.0125 15.016 85.116 15.016V17.016C85.7555 17.016 85.9057 17.1791 85.9267 17.2059L87.5054 15.9781ZM85.116 15.016H83.324V17.016H85.116V15.016ZM84.324 16.016V11.28H82.324V16.016H84.324ZM83.324 12.28H94.012V10.28H83.324V12.28ZM93.012 11.28V34.896H95.012V11.28H93.012ZM93.012 34.896C93.012 35.8425 93.2343 36.7485 93.8809 37.3951L95.2951 35.9809C95.1737 35.8595 95.012 35.5709 95.012 34.896H93.012ZM93.9236 37.4354C94.5711 38.0109 95.4591 38.2 96.38 38.2V36.2C95.6796 36.2 95.3729 36.0477 95.2524 35.9406L93.9236 37.4354ZM96.38 38.2H97.66V36.2H96.38V38.2ZM96.66 37.2V42H98.66V37.2H96.66ZM97.66 41H89.532V43H97.66V41ZM90.5278 41.9081L90.1438 37.7481L88.1522 37.9319L88.5362 42.0919L90.5278 41.9081ZM88.3526 37.234C87.0767 38.9085 85.6059 40.0949 83.9438 40.8293L84.7522 42.6587C86.7595 41.7717 88.4886 40.3555 89.9434 38.446L88.3526 37.234ZM83.9358 40.8329C82.308 41.5693 80.2603 41.96 77.756 41.96V43.96C80.4571 43.96 82.804 43.5401 84.7602 42.6551L83.9358 40.8329ZM101.237 37.264V36.264H100.237V37.264H101.237ZM101.621 16.016H100.621V17.016H101.621V16.016ZM101.621 11.28V10.28H100.621V11.28H101.621ZM110.453 11.28L111.422 11.0333L111.23 10.28H110.453V11.28ZM111.349 14.8L110.38 15.0467L110.946 17.2696L112.189 15.3421L111.349 14.8ZM114.613 12.048L114.262 11.1116L114.252 11.1154L114.613 12.048ZM122.357 11.28H123.357V10.28H122.357V11.28ZM122.357 16.016V17.016H123.357V16.016H122.357ZM113.589 17.68L114.31 18.3725L114.317 18.3655L114.324 18.3583L113.589 17.68ZM112.565 36.752L111.818 37.4164L111.837 37.4383L111.858 37.4591L112.565 36.752ZM115.893 37.264H116.893V36.264H115.893V37.264ZM115.893 42V43H116.893V42H115.893ZM101.237 42H100.237V43H101.237V42ZM101.237 38.264H102.837V36.264H101.237V38.264ZM102.837 38.264C103.768 38.264 104.707 38.0884 105.336 37.4591L103.922 36.0449C103.868 36.0983 103.613 36.264 102.837 36.264V38.264ZM105.336 37.4591C105.991 36.8044 106.205 35.8676 106.205 34.896H104.205C104.205 35.6311 104.035 35.9316 103.922 36.0449L105.336 37.4591ZM106.205 34.896V18.384H104.205V34.896H106.205ZM106.205 18.384C106.205 17.4631 106.016 16.5751 105.44 15.9276L103.946 17.2564C104.053 17.3769 104.205 17.6836 104.205 18.384H106.205ZM105.44 15.9276C104.823 15.233 103.899 15.016 102.965 15.016V17.016C103.653 17.016 103.88 17.183 103.946 17.2564L105.44 15.9276ZM102.965 15.016H101.621V17.016H102.965V15.016ZM102.621 16.016V11.28H100.621V16.016H102.621ZM101.621 12.28H110.453V10.28H101.621V12.28ZM109.484 11.5267L110.38 15.0467L112.318 14.5533L111.422 11.0333L109.484 11.5267ZM112.189 15.3421C112.941 14.1765 113.87 13.408 114.974 12.9806L114.252 11.1154C112.711 11.712 111.463 12.7781 110.509 14.2579L112.189 15.3421ZM114.964 12.9843C116.192 12.5237 117.669 12.28 119.413 12.28V10.28C117.488 10.28 115.764 10.5483 114.262 11.1117L114.964 12.9843ZM119.413 12.28H122.357V10.28H119.413V12.28ZM121.357 11.28V16.016H123.357V11.28H121.357ZM122.357 15.016H118.773V17.016H122.357V15.016ZM118.773 15.016C116.228 15.016 114.156 15.591 112.854 17.0017L114.324 18.3583C115.07 17.5503 116.454 17.016 118.773 17.016V15.016ZM112.868 16.9875C111.59 18.3183 111.053 20.2857 111.053 22.672H113.053C113.053 20.5356 113.54 19.1751 114.31 18.3725L112.868 16.9875ZM111.053 22.672V34.896H113.053V22.672H111.053ZM111.053 34.896C111.053 35.8435 111.235 36.7615 111.818 37.4164L113.312 36.0876C113.212 35.9745 113.053 35.6551 113.053 34.896H111.053ZM111.858 37.4591C112.48 38.0811 113.387 38.264 114.293 38.264V36.264C113.578 36.264 113.333 36.1056 113.272 36.0449L111.858 37.4591ZM114.293 38.264H115.893V36.264H114.293V38.264ZM114.893 37.264V42H116.893V37.264H114.893ZM115.893 41H101.237V43H115.893V41ZM102.237 42V37.264H100.237V42H102.237ZM129.316 0.528V-0.472H128.316V0.528H129.316ZM136.549 0.528H137.549V-0.472H136.549V0.528ZM136.549 6.416V7.416H137.549V6.416H136.549ZM129.316 6.416H128.316V7.416H129.316V6.416ZM125.285 37.264V36.264H124.285V37.264H125.285ZM128.932 36.688L128.225 35.9809L128.205 36.0017L128.185 36.0236L128.932 36.688ZM128.932 16.656L128.185 17.3204L128.224 17.3643L128.268 17.4034L128.932 16.656ZM125.285 16.08H124.285V17.08H125.285V16.08ZM125.285 11.28V10.28H124.285V11.28H125.285ZM136.357 11.28H137.357V10.28H136.357V11.28ZM140.581 37.264H141.581V36.264H140.581V37.264ZM140.581 42V43H141.581V42H140.581ZM125.285 42H124.285V43H125.285V42ZM129.316 1.528H136.549V-0.472H129.316V1.528ZM135.549 0.528V6.416H137.549V0.528H135.549ZM136.549 5.416H129.316V7.416H136.549V5.416ZM130.316 6.416V0.528H128.316V6.416H130.316ZM125.285 38.264H127.141V36.264H125.285V38.264ZM127.141 38.264C128.097 38.264 129.054 38.056 129.68 37.3524L128.185 36.0236C128.128 36.088 127.89 36.264 127.141 36.264V38.264ZM129.64 37.3951C130.294 36.7404 130.508 35.8036 130.508 34.832H128.508C128.508 35.567 128.339 35.8676 128.225 35.9809L129.64 37.3951ZM130.508 34.832V18.384H128.508V34.832H130.508ZM130.508 18.384C130.508 17.4505 130.292 16.5261 129.597 15.9086L128.268 17.4034C128.341 17.4686 128.508 17.6962 128.508 18.384H130.508ZM129.68 15.9916C129.054 15.288 128.097 15.08 127.141 15.08V17.08C127.89 17.08 128.128 17.256 128.185 17.3204L129.68 15.9916ZM127.141 15.08H125.285V17.08H127.141V15.08ZM126.285 16.08V11.28H124.285V16.08H126.285ZM125.285 12.28H136.357V10.28H125.285V12.28ZM135.357 11.28V34.896H137.357V11.28H135.357ZM135.357 34.896C135.357 35.8425 135.579 36.7485 136.225 37.3951L137.64 35.9809C137.518 35.8595 137.357 35.5709 137.357 34.896H135.357ZM136.225 37.3951C136.872 38.0417 137.778 38.264 138.725 38.264V36.264C138.05 36.264 137.761 36.1023 137.64 35.9809L136.225 37.3951ZM138.725 38.264H140.581V36.264H138.725V38.264ZM139.581 37.264V42H141.581V37.264H139.581ZM140.581 41H125.285V43H140.581V41ZM126.285 42V37.264H124.285V42H126.285ZM144.174 39.248H143.174V39.7582L143.588 40.0576L144.174 39.248ZM144.174 34.256V33.256H143.174V34.256H144.174ZM150.447 34.256H151.447V33.256H150.447V34.256ZM150.447 36.816H149.447V37.3894L149.941 37.679L150.447 36.816ZM161.135 37.456L160.615 36.6018L160.606 36.607L160.598 36.6123L161.135 37.456ZM161.839 32.336L161.052 32.9538L161.077 32.9851L161.104 33.0143L161.839 32.336ZM159.855 30.864L159.407 31.7584L159.426 31.7675L159.444 31.7759L159.855 30.864ZM154.799 28.688L154.422 29.6143L154.799 28.688ZM148.975 26.064L148.472 26.9288L148.489 26.9383L148.505 26.9471L148.975 26.064ZM145.71 23.184L144.893 23.7595L144.9 23.7694L144.907 23.7792L145.71 23.184ZM147.758 12.496L148.302 13.3356L148.313 13.328L147.758 12.496ZM163.374 11.28L163.082 12.2362L163.091 12.2389L163.1 12.2415L163.374 11.28ZM168.814 13.904H169.814V13.404L169.415 13.104L168.814 13.904ZM168.814 18.704V19.704H169.814V18.704H168.814ZM162.671 18.704H161.671V19.704H162.671V18.704ZM162.671 16.336H163.671V15.7752L163.192 15.4827L162.671 16.336ZM152.814 15.824L152.295 14.9698L152.286 14.975L152.278 14.9803L152.814 15.824ZM152.943 21.84L152.364 22.656L152.376 22.6642L152.388 22.672L152.943 21.84ZM157.678 24.016L157.34 24.9569L157.371 24.9683L157.404 24.9775L157.678 24.016ZM159.663 24.72L159.282 25.6447L159.293 25.6491L159.304 25.6533L159.663 24.72ZM164.975 27.088L164.494 27.9648L164.975 27.088ZM168.238 29.968L167.425 30.5492L168.238 29.968ZM166.383 40.784L165.812 39.9624L165.804 39.968L166.383 40.784ZM157.038 41.96C152.038 41.96 147.969 40.7637 144.761 38.4384L143.588 40.0576C147.207 42.6816 151.713 43.96 157.038 43.96V41.96ZM145.174 39.248V34.256H143.174V39.248H145.174ZM144.174 35.256H150.447V33.256H144.174V35.256ZM149.447 34.256V36.816H151.447V34.256H149.447ZM149.941 37.679C151.877 38.812 154.194 39.352 156.846 39.352V37.352C154.464 37.352 152.515 36.868 150.952 35.953L149.941 37.679ZM156.846 39.352C158.835 39.352 160.494 39.0491 161.671 38.2997L160.598 36.6123C159.898 37.0576 158.698 37.352 156.846 37.352V39.352ZM161.654 38.3102C162.994 37.4946 163.607 36.1492 163.607 34.512H161.607C161.607 35.6054 161.237 36.2227 160.615 36.6018L161.654 38.3102ZM163.607 34.512C163.607 33.4145 163.287 32.4308 162.573 31.6577L161.104 33.0143C161.414 33.3506 161.607 33.8175 161.607 34.512H163.607ZM162.625 31.7182C162.035 30.9678 161.232 30.3872 160.265 29.9521L159.444 31.7759C160.184 32.1088 160.703 32.5095 161.052 32.9538L162.625 31.7182ZM160.302 29.9696C159.408 29.523 157.688 28.7838 155.175 27.7617L154.422 29.6143C156.944 30.6402 158.594 31.3517 159.407 31.7584L160.302 29.9696ZM155.175 27.7617C152.67 26.7425 150.765 25.8827 149.444 25.1809L148.505 26.9471C149.915 27.696 151.893 28.5855 154.422 29.6143L155.175 27.7617ZM149.477 25.1992C148.264 24.495 147.281 23.6241 146.514 22.5888L144.907 23.7792C145.847 25.0479 147.04 26.097 148.472 26.9288L149.477 25.1992ZM146.528 22.6085C145.862 21.6619 145.495 20.4256 145.495 18.832H143.495C143.495 20.737 143.937 22.4021 144.893 23.7595L146.528 22.6085ZM145.495 18.832C145.495 16.3203 146.439 14.5411 148.302 13.3356L147.215 11.6564C144.726 13.2669 143.495 15.7117 143.495 18.832H145.495ZM148.313 13.328C150.268 12.0249 153.015 11.32 156.654 11.32V9.32C152.784 9.32 149.601 10.0657 147.204 11.6639L148.313 13.328ZM156.654 11.32C158.954 11.32 161.094 11.6278 163.082 12.2362L163.667 10.3238C161.473 9.6522 159.134 9.32 156.654 9.32V11.32ZM163.1 12.2415C165.088 12.8097 166.788 13.6343 168.215 14.704L169.415 13.104C167.769 11.8697 165.842 10.9449 163.649 10.3185L163.1 12.2415ZM167.814 13.904V18.704H169.814V13.904H167.814ZM168.814 17.704H162.671V19.704H168.814V17.704ZM163.671 18.704V16.336H161.671V18.704H163.671ZM163.192 15.4827C161.472 14.4316 159.449 13.928 157.167 13.928V15.928C159.15 15.928 160.797 16.363 162.149 17.1893L163.192 15.4827ZM157.167 13.928C155.173 13.928 153.505 14.2328 152.295 14.9698L153.334 16.6782C154.086 16.2205 155.32 15.928 157.167 15.928V13.928ZM152.278 14.9803C150.973 15.8106 150.406 17.1855 150.406 18.832H152.406C152.406 17.6625 152.779 17.0321 153.351 16.6677L152.278 14.9803ZM150.406 18.832C150.406 20.4286 151.07 21.7388 152.364 22.656L153.521 21.024C152.767 20.4905 152.406 19.7954 152.406 18.832H150.406ZM152.388 22.672C153.513 23.4225 155.183 24.1803 157.34 24.9569L158.017 23.0751C155.908 22.3157 154.42 21.6228 153.497 21.0079L152.388 22.672ZM157.404 24.9775C157.957 25.1356 158.583 25.3568 159.282 25.6447L160.043 23.7953C159.292 23.4859 158.594 23.2377 157.953 23.0545L157.404 24.9775ZM159.304 25.6533C161.501 26.4986 163.226 27.2696 164.494 27.9648L165.455 26.2112C164.078 25.4557 162.261 24.6481 160.021 23.7867L159.304 25.6533ZM164.494 27.9648C165.688 28.6199 166.661 29.4803 167.425 30.5492L169.052 29.3868C168.109 28.0664 166.906 27.0067 165.455 26.2112L164.494 27.9648ZM167.425 30.5492C168.13 31.5361 168.518 32.8332 168.518 34.512H170.518C170.518 32.5214 170.054 30.7893 169.052 29.3868L167.425 30.5492ZM168.518 34.512C168.518 36.9431 167.611 38.7141 165.812 39.9624L166.953 41.6056C169.335 39.9525 170.518 37.5422 170.518 34.512H168.518ZM165.804 39.968C164.005 41.2428 161.138 41.96 157.038 41.96V43.96C161.302 43.96 164.664 43.2265 166.961 41.6L165.804 39.968ZM179.84 40.336L180.538 39.6204L179.84 40.336ZM177.152 15.888H178.152V14.888H177.152V15.888ZM172.16 15.888H171.16V16.888H172.16V15.888ZM172.16 11.28V10.28H171.16V11.28H172.16ZM177.152 11.28V12.28H178.152V11.28H177.152ZM177.152 4.368L176.846 3.41578L176.152 3.63857V4.368H177.152ZM183.936 2.192H184.936V0.82106L183.63 1.23978L183.936 2.192ZM183.936 11.28H182.936V12.28H183.936V11.28ZM193.152 11.28H194.152V10.28H193.152V11.28ZM193.152 15.888V16.888H194.152V15.888H193.152ZM183.936 15.888V14.888H182.936V15.888H183.936ZM184.96 37.136L184.195 37.7801L184.204 37.7916L184.214 37.8028L184.96 37.136ZM192.512 37.136L193.148 37.907L193.512 37.607V37.136H192.512ZM192.512 34.384V33.384H191.512V34.384H192.512ZM198.335 34.384H199.335V33.384H198.335V34.384ZM198.335 39.248L198.982 40.0105L199.335 39.711V39.248H198.335ZM187.84 41.96C184.45 41.96 182.078 41.1233 180.538 39.6204L179.141 41.0516C181.185 43.0473 184.146 43.96 187.84 43.96V41.96ZM180.538 39.6204C178.998 38.1173 178.152 35.8536 178.152 32.656H176.152C176.152 36.1997 177.097 39.056 179.141 41.0516L180.538 39.6204ZM178.152 32.656V15.888H176.152V32.656H178.152ZM177.152 14.888H172.16V16.888H177.152V14.888ZM173.16 15.888V11.28H171.16V15.888H173.16ZM172.16 12.28H177.152V10.28H172.16V12.28ZM178.152 11.28V4.368H176.152V11.28H178.152ZM177.457 5.32022L184.241 3.14421L183.63 1.23978L176.846 3.41578L177.457 5.32022ZM182.936 2.192V11.28H184.936V2.192H182.936ZM183.936 12.28H193.152V10.28H183.936V12.28ZM192.152 11.28V15.888H194.152V11.28H192.152ZM193.152 14.888H183.936V16.888H193.152V14.888ZM182.936 15.888V33.104H184.936V15.888H182.936ZM182.936 33.104C182.936 35.0537 183.281 36.6947 184.195 37.7801L185.724 36.4919C185.273 35.956 184.936 34.909 184.936 33.104H182.936ZM184.214 37.8028C185.187 38.89 186.588 39.352 188.223 39.352V37.352C186.958 37.352 186.183 37.0034 185.705 36.4692L184.214 37.8028ZM188.223 39.352C190.226 39.352 191.92 38.9219 193.148 37.907L191.875 36.365C191.141 36.9715 189.975 37.352 188.223 37.352V39.352ZM193.512 37.136V34.384H191.512V37.136H193.512ZM192.512 35.384H198.335V33.384H192.512V35.384ZM197.335 34.384V39.248H199.335V34.384H197.335ZM197.689 38.4855C196.363 39.6101 194.924 40.4684 193.369 41.0667L194.086 42.9333C195.859 42.2516 197.492 41.2753 198.982 40.0105L197.689 38.4855ZM193.369 41.0667C191.845 41.6525 190.01 41.96 187.84 41.96V43.96C190.192 43.96 192.282 43.6275 194.086 42.9333L193.369 41.0667ZM202.596 40.72L201.947 41.4806L201.956 41.4882L202.596 40.72ZM202.852 27.664L203.443 28.4704L203.446 28.4682L202.852 27.664ZM211.3 25.104L211.236 24.106L211.23 24.1064L211.3 25.104ZM220.26 24.528L220.324 25.5259L221.26 25.4658V24.528H220.26ZM218.98 16.272L219.704 15.5823L218.98 16.272ZM211.108 15.312L211.34 16.2848L211.355 16.281L211.371 16.2768L211.108 15.312ZM208.612 16.4L208.057 15.568L207.612 15.8648V16.4H208.612ZM208.612 18.704V19.704H209.612V18.704H208.612ZM202.66 18.704H201.66V19.704H202.66V18.704ZM202.66 13.648L202.134 12.7977L201.66 13.0909V13.648H202.66ZM227.492 37.072L226.703 37.6859L226.723 37.7118L226.745 37.7364L227.492 37.072ZM230.5 37.648H231.5V36.648H230.5V37.648ZM230.5 42V43H231.5V42H230.5ZM223.14 42L222.161 42.2021L222.325 43H223.14V42ZM222.308 37.968L223.287 37.7659L222.85 35.6479L221.52 37.3527L222.308 37.968ZM217.508 41.808L217.902 42.7272L217.912 42.7227L217.508 41.808ZM220.26 28.56H221.26V27.4814L220.184 27.5629L220.26 28.56ZM211.812 29.2L211.873 30.1981L211.88 30.1977L211.888 30.1971L211.812 29.2ZM207.46 30.544L208.127 31.2892L208.137 31.2797L208.148 31.27L207.46 30.544ZM207.588 37.264L206.959 38.0412L207.588 37.264ZM210.404 41.96C207.119 41.96 204.781 41.2395 203.236 39.9518L201.956 41.4882C203.995 43.1872 206.862 43.96 210.404 43.96V41.96ZM203.245 39.9594C201.761 38.6921 200.972 36.8824 200.972 34.384H198.972C198.972 37.3469 199.933 39.7612 201.947 41.4806L203.245 39.9594ZM200.972 34.384C200.972 31.5287 201.853 29.637 203.443 28.4704L202.261 26.8576C200.011 28.507 198.972 31.0953 198.972 34.384H200.972ZM203.446 28.4682C205.197 27.1742 207.8 26.3506 211.37 26.1016L211.23 24.1064C207.461 24.3694 204.432 25.2524 202.258 26.8598L203.446 28.4682ZM211.364 26.1019L220.324 25.5259L220.196 23.5301L211.236 24.1061L211.364 26.1019ZM221.26 24.528V20.624H219.26V24.528H221.26ZM221.26 20.624C221.26 18.5133 220.817 16.7508 219.704 15.5823L218.256 16.9617C218.85 17.5852 219.26 18.724 219.26 20.624H221.26ZM219.704 15.5823C218.57 14.3913 216.778 13.928 214.628 13.928V15.928C216.574 15.928 217.684 16.3607 218.256 16.9617L219.704 15.5823ZM214.628 13.928C213.167 13.928 211.898 14.06 210.845 14.3472L211.371 16.2768C212.195 16.052 213.273 15.928 214.628 15.928V13.928ZM210.876 14.3392C209.865 14.58 208.924 14.9904 208.057 15.568L209.167 17.232C209.836 16.7856 210.559 16.4707 211.34 16.2848L210.876 14.3392ZM207.612 16.4V18.704H209.612V16.4H207.612ZM208.612 17.704H202.66V19.704H208.612V17.704ZM203.66 18.704V13.648H201.66V18.704H203.66ZM203.186 14.4983C206.602 12.3837 210.45 11.32 214.756 11.32V9.32C210.102 9.32 205.886 10.475 202.134 12.7977L203.186 14.4983ZM214.756 11.32C218.726 11.32 221.516 12.2014 223.309 13.7887C225.079 15.3555 226.044 17.7612 226.044 21.2H228.044C228.044 17.3855 226.961 14.3512 224.635 12.2913C222.332 10.252 218.978 9.32 214.756 9.32V11.32ZM226.044 21.2V35.216H228.044V21.2H226.044ZM226.044 35.216C226.044 36.1418 226.198 37.0365 226.703 37.6859L228.281 36.4581C228.189 36.3395 228.044 35.9968 228.044 35.216H226.044ZM226.745 37.7364C227.344 38.4102 228.202 38.648 229.092 38.648V36.648C228.531 36.648 228.323 36.5018 228.239 36.4076L226.745 37.7364ZM229.092 38.648H230.5V36.648H229.092V38.648ZM229.5 37.648V42H231.5V37.648H229.5ZM230.5 41H223.14V43H230.5V41ZM224.119 41.7979L223.287 37.7659L221.329 38.1701L222.161 42.2021L224.119 41.7979ZM221.52 37.3527C220.245 38.9862 218.772 40.1561 217.104 40.8933L217.912 42.7227C219.913 41.8385 221.641 40.4485 223.096 38.5833L221.52 37.3527ZM217.114 40.8889C215.493 41.5834 213.275 41.96 210.404 41.96V43.96C213.421 43.96 215.939 43.5686 217.902 42.7271L217.114 40.8889ZM211.94 39.352C214.636 39.352 216.896 38.7685 218.616 37.4907L217.424 35.8853C216.157 36.8262 214.364 37.352 211.94 37.352V39.352ZM218.616 37.4907C220.419 36.1514 221.26 34.1332 221.26 31.632H219.26C219.26 33.6534 218.607 35.006 217.424 35.8853L218.616 37.4907ZM221.26 31.632V28.56H219.26V31.632H221.26ZM220.184 27.5629L211.736 28.2029L211.888 30.1971L220.336 29.5571L220.184 27.5629ZM211.751 28.2019C209.605 28.3332 207.849 28.7975 206.772 29.818L208.148 31.27C208.692 30.7545 209.837 30.3228 211.873 30.1981L211.751 28.2019ZM206.793 29.7988C205.684 30.7908 205.244 32.2989 205.244 34.064H207.244C207.244 32.5865 207.614 31.7478 208.127 31.2892L206.793 29.7988ZM205.244 34.064C205.244 35.7001 205.776 37.0841 206.959 38.0412L208.217 36.4868C207.608 35.9932 207.244 35.2439 207.244 34.064H205.244ZM206.959 38.0412C208.123 38.984 209.858 39.352 211.94 39.352V37.352C210.011 37.352 208.845 36.9947 208.217 36.4868L206.959 38.0412ZM234.112 37.264V36.264H233.112V37.264H234.112ZM237.568 16.656L236.821 17.3204L236.84 17.3423L236.861 17.3631L237.568 16.656ZM234.432 16.08H233.432V17.08H234.432V16.08ZM234.432 11.28V10.28H233.432V11.28H234.432ZM242.624 11.28L243.62 11.1908L243.538 10.28H242.624V11.28ZM243.008 15.568L242.012 15.6572L242.236 18.1568L243.792 16.1882L243.008 15.568ZM247.936 11.6L248.34 12.5147L248.35 12.5104L247.936 11.6ZM265.472 36.752L264.725 37.4164L264.764 37.4603L264.808 37.4994L265.472 36.752ZM269.12 37.264H270.12V36.264H269.12V37.264ZM269.12 42V43H270.12V42H269.12ZM258.112 42H257.112V43H258.112V42ZM256.768 16.4L256.03 17.0743L256.037 17.0825L256.045 17.0905L256.768 16.4ZM247.04 16.784L246.38 16.0328L247.04 16.784ZM245.376 36.752L244.587 37.3659L244.625 37.4151L244.669 37.4591L245.376 36.752ZM248.768 37.264H249.768V36.264H248.768V37.264ZM248.768 42V43H249.768V42H248.768ZM234.112 42H233.112V43H234.112V42ZM234.112 38.264H235.712V36.264H234.112V38.264ZM235.712 38.264C236.643 38.264 237.582 38.0884 238.211 37.4591L236.797 36.0449C236.743 36.0983 236.488 36.264 235.712 36.264V38.264ZM238.211 37.4591C238.866 36.8044 239.08 35.8676 239.08 34.896H237.08C237.08 35.6311 236.91 35.9316 236.797 36.0449L238.211 37.4591ZM239.08 34.896V18.448H237.08V34.896H239.08ZM239.08 18.448C239.08 17.517 238.904 16.5781 238.275 15.9489L236.861 17.3631C236.914 17.4165 237.08 17.6724 237.08 18.448H239.08ZM238.315 15.9916C237.69 15.288 236.733 15.08 235.776 15.08V17.08C236.526 17.08 236.763 17.256 236.821 17.3204L238.315 15.9916ZM235.776 15.08H234.432V17.08H235.776V15.08ZM235.432 16.08V11.28H233.432V16.08H235.432ZM234.432 12.28H242.624V10.28H234.432V12.28ZM241.628 11.3692L242.012 15.6572L244.004 15.4788L243.62 11.1908L241.628 11.3692ZM243.792 16.1882C245.159 14.4599 246.677 13.2495 248.34 12.5147L247.532 10.6853C245.525 11.5719 243.758 13.0067 242.224 14.9478L243.792 16.1882ZM248.35 12.5104C250.066 11.7303 252.179 11.32 254.72 11.32V9.32C251.971 9.32 249.561 9.76302 247.522 10.6896L248.35 12.5104ZM254.72 11.32C257.97 11.32 260.225 12.1609 261.68 13.67C263.141 15.1859 263.96 17.5478 263.96 20.944H265.96C265.96 17.2575 265.072 14.3074 263.12 12.282C261.161 10.2498 258.297 9.32 254.72 9.32V11.32ZM263.96 20.944V34.896H265.96V20.944H263.96ZM263.96 34.896C263.96 35.8435 264.142 36.7615 264.725 37.4164L266.219 36.0876C266.119 35.9745 265.96 35.6551 265.96 34.896H263.96ZM264.808 37.4994C265.462 38.0815 266.38 38.264 267.328 38.264V36.264C266.569 36.264 266.25 36.1052 266.136 36.0046L264.808 37.4994ZM267.328 38.264H269.12V36.264H267.328V38.264ZM268.12 37.264V42H270.12V37.264H268.12ZM269.12 41H258.112V43H269.12V41ZM259.112 42V21.008H257.112V42H259.112ZM259.112 21.008C259.112 18.774 258.65 16.9229 257.491 15.7095L256.045 17.0905C256.678 17.7545 257.112 18.9754 257.112 21.008H259.112ZM257.507 15.7257C256.342 14.4507 254.559 13.928 252.416 13.928V15.928C254.283 15.928 255.402 16.3867 256.03 17.0743L257.507 15.7257ZM252.416 13.928C250.038 13.928 247.999 14.6097 246.38 16.0328L247.7 17.5352C248.897 16.4836 250.441 15.928 252.416 15.928V13.928ZM246.38 16.0328C244.716 17.4952 243.928 19.5197 243.928 21.968H245.928C245.928 19.979 246.548 18.5474 247.7 17.5352L246.38 16.0328ZM243.928 21.968V34.896H245.928V21.968H243.928ZM243.928 34.896C243.928 35.8218 244.082 36.7165 244.587 37.3659L246.165 36.1381C246.073 36.0195 245.928 35.6768 245.928 34.896H243.928ZM244.669 37.4591C245.291 38.0811 246.198 38.264 247.104 38.264V36.264C246.389 36.264 246.144 36.1056 246.083 36.0449L244.669 37.4591ZM247.104 38.264H248.768V36.264H247.104V38.264ZM247.768 37.264V42H249.768V37.264H247.768ZM248.768 41H234.112V43H248.768V41ZM235.112 42V37.264H233.112V42H235.112Z" fill="#0D08F8" mask="url(#path-1-outside-1_63_151)"/>
</svg>
